<svg xmlns="http://www.w3.org/2000/svg" viewBox="0 0 1200 800" fill="none" role="img" aria-label="Aficionados reviviendo sus mejores partidos de f·tbol">
  <defs>
    <linearGradient id="sky" x1="600" y1="0" x2="600" y2="800" gradientUnits="userSpaceOnUse">
      <stop stop-color="#0a0a0b"/>
      <stop offset="0.45" stop-color="#0f1a17"/>
      <stop offset="1" stop-color="#0a0a0b"/>
    </linearGradient>
    <linearGradient id="glow" x1="600" y1="200" x2="600" y2="600" gradientUnits="userSpaceOnUse">
      <stop stop-color="#10b981" stop-opacity="0.35"/>
      <stop offset="1" stop-color="#10b981" stop-opacity="0"/>
    </linearGradient>
    <linearGradient id="pitch" x1="300" y1="420" x2="900" y2="620" gradientUnits="userSpaceOnUse">
      <stop stop-color="#14532d"/>
      <stop offset="1" stop-color="#052e16"/>
    </linearGradient>
    <radialGradient id="spotlight" cx="0" cy="0" r="1" gradientUnits="userSpaceOnUse" gradientTransform="translate(600 280) rotate(90) scale(320 220)">
      <stop stop-color="#34d399" stop-opacity="0.22"/>
      <stop offset="1" stop-color="#34d399" stop-opacity="0"/>
    </radialGradient>
  </defs>

  <rect width="1200" height="800" fill="url(#sky)"/>
  <ellipse cx="600" cy="360" rx="520" ry="280" fill="url(#glow)"/>
  <ellipse cx="600" cy="300" rx="360" ry="180" fill="url(#spotlight)"/>

  <!-- Stadium arc -->
  <path d="M80 520C180 300 420 180 600 180C780 180 1020 300 1120 520" stroke="#27272a" stroke-width="3"/>
  <path d="M140 500C220 330 410 230 600 230C790 230 980 330 1060 500" stroke="#3f3f46" stroke-width="2" stroke-dasharray="8 10" opacity="0.7"/>

  <!-- Pitch -->
  <rect x="220" y="430" width="760" height="250" rx="18" fill="url(#pitch)" stroke="#166534" stroke-width="2"/>
  <line x1="600" y1="430" x2="600" y2="680" stroke="#22c55e" stroke-opacity="0.25" stroke-width="2"/>
  <circle cx="600" cy="555" r="58" stroke="#22c55e" stroke-opacity="0.25" stroke-width="2"/>
  <rect x="220" y="500" width="110" height="110" rx="4" stroke="#22c55e" stroke-opacity="0.2" stroke-width="2"/>
  <rect x="870" y="500" width="110" height="110" rx="4" stroke="#22c55e" stroke-opacity="0.2" stroke-width="2"/>

  <!-- Floating memory cards -->
  <g opacity="0.95">
    <rect x="150" y="250" width="170" height="92" rx="14" fill="#141416" stroke="#27272a"/>
    <text x="170" y="282" fill="#fafafa" font-family="Inter, sans-serif" font-size="14" font-weight="600">Espa±a 3 - 2 Francia</text>
    <text x="170" y="306" fill="#10b981" font-family="Inter, sans-serif" font-size="12"></text>
    <text x="170" y="326" fill="#71717a" font-family="Inter, sans-serif" font-size="11">Gol del 89' Ę En casa</text>

    <rect x="880" y="220" width="170" height="92" rx="14" fill="#141416" stroke="#27272a"/>
    <text x="900" y="252" fill="#fafafa" font-family="Inter, sans-serif" font-size="14" font-weight="600">Clßsico 2 - 1</text>
    <text x="900" y="276" fill="#10b981" font-family="Inter, sans-serif" font-size="12"></text>
    <text x="900" y="296" fill="#71717a" font-family="Inter, sans-serif" font-size="11">Bernabķu Ę Con amigos</text>
  </g>

  <!-- Central badge -->
  <circle cx="600" cy="130" r="54" fill="#10b981"/>
  <text x="600" y="142" text-anchor="middle" fill="white" font-family="Inter, sans-serif" font-size="34" font-weight="700">90</text>

  <!-- Crowd silhouettes -->
  <g fill="#18181b" opacity="0.9">
    <ellipse cx="250" cy="560" rx="22" ry="10"/>
    <ellipse cx="310" cy="548" rx="22" ry="10"/>
    <ellipse cx="370" cy="560" rx="22" ry="10"/>
    <ellipse cx="830" cy="560" rx="22" ry="10"/>
    <ellipse cx="890" cy="548" rx="22" ry="10"/>
    <ellipse cx="950" cy="560" rx="22" ry="10"/>
  </g>
</svg>
